name rise38.3101peak57.3503fall81.6963.mot
datacolumns 19
datarows 26
range 2.40833200000000 2.44999900000000
endheader
time	ground_force1_vx	ground_force1_vy	ground_force1_vz	ground_force1_px	ground_force1_py	ground_force1_pz	ground_force2_vx	ground_force2_vy	ground_force2_vz	ground_force2_px	ground_force2_py	ground_force2_pz	ground_torque1_x	ground_torque1_y	ground_torque1_z	ground_torque2_x	ground_torque2_y	ground_torque2_z	
2.40833200000000	-44.31228800000000	825.42205600000000	50.57291400000000	0.14638900000000	0.00000000000000	0.10032800000000	-6.02057700000000	20.44638300000000	5.60700400000000	0.00000000000000	0.00000000000000	0.00000000000000	0.00000000000000	24.02302700000000	0.00000000000000	0.00000000000000	2.00888500000000	0.00000000000000	
2.40999900000000	-44.85507300000000	824.37255900000002	50.58171500000000	0.14551200000000	0.00000000000000	0.10038500000000	-7.32109100000000	25.84398300000000	6.92965100000000	0.34936000000000	0.00000000000000	-0.05773400000000	0.00000000000000	23.97986700000000	0.00000000000000	0.00000000000000	4.49450900000000	0.00000000000000	
2.41166100000000	-45.40510600000000	823.20344499999999	50.56689600000000	0.14465200000000	0.00000000000000	0.10043800000000	-8.60231700000000	31.52393100000000	8.27233600000000	0.35406600000000	0.00000000000000	-0.05824600000000	0.00000000000000	23.93436600000000	0.00000000000000	0.00000000000000	5.42327500000000	0.00000000000000	
2.41332800000000	-45.96273400000000	821.91303900000003	50.52796400000000	0.14380800000000	0.00000000000000	0.10048900000000	-9.81873800000000	37.36139600000000	9.59525900000000	0.35856300000000	0.00000000000000	-0.05871700000000	0.00000000000000	23.88664200000000	0.00000000000000	0.00000000000000	6.35630300000000	0.00000000000000	
2.41499800000000	-46.52828100000000	820.49970499999995	50.46447400000000	0.14298200000000	0.00000000000000	0.10053700000000	-10.92900300000000	43.23685800000000	10.86135700000000	0.36286500000000	0.00000000000000	-0.05915500000000	0.00000000000000	23.83681000000000	0.00000000000000	0.00000000000000	7.26870000000000	0.00000000000000	
2.41666600000000	-47.10204700000000	818.96184500000004	50.37603000000000	0.14217200000000	0.00000000000000	0.10058100000000	-11.89866900000000	49.04499100000000	12.03881900000000	0.36698200000000	0.00000000000000	-0.05956500000000	0.00000000000000	23.78498300000000	0.00000000000000	0.00000000000000	8.13831500000000	0.00000000000000	
2.41833300000000	-47.68430100000000	817.29789500000004	50.26228400000000	0.14138000000000	0.00000000000000	0.10062300000000	-12.70206300000000	54.70133500000000	13.10288000000000	0.37092300000000	0.00000000000000	-0.05995300000000	0.00000000000000	23.73127000000000	0.00000000000000	0.00000000000000	8.94709000000000	0.00000000000000	
2.41999600000000	-48.27528100000000	815.50632599999994	50.12294200000000	0.14060300000000	0.00000000000000	0.10066100000000	-13.32318400000000	60.14633000000000	14.03679800000000	0.37469600000000	0.00000000000000	-0.06032100000000	0.00000000000000	23.67577800000000	0.00000000000000	0.00000000000000	9.68189400000000	0.00000000000000	
2.42165800000000	-48.87518900000000	813.58563400000003	49.95775800000000	0.13984300000000	0.00000000000000	0.10069600000000	-13.75567100000000	65.34667899999999	14.83201800000000	0.37830600000000	0.00000000000000	-0.06067400000000	0.00000000000000	23.61860800000000	0.00000000000000	0.00000000000000	10.33483500000000	0.00000000000000	
2.42332700000000	-49.48418800000000	811.53434600000003	49.76654100000000	0.13909900000000	0.00000000000000	0.10072700000000	-14.00199400000000	70.29433100000000	15.48764000000000	0.38175800000000	0.00000000000000	-0.06101500000000	0.00000000000000	23.55985700000000	0.00000000000000	0.00000000000000	10.90308500000000	0.00000000000000	
2.42499700000000	-50.10239700000000	809.35101099999997	49.54914800000000	0.13837000000000	0.00000000000000	0.10075500000000	-14.07205400000000	75.00356900000000	16.00934900000000	0.38505600000000	0.00000000000000	-0.06134500000000	0.00000000000000	23.49961500000000	0.00000000000000	0.00000000000000	11.38832800000000	0.00000000000000	
2.42666000000000	-50.72988800000000	807.03420000000006	49.30549000000000	0.13765500000000	0.00000000000000	0.10077900000000	-13.98140800000000	79.50675099999999	16.40798800000000	0.38820500000000	0.00000000000000	-0.06166800000000	0.00000000000000	23.43796600000000	0.00000000000000	0.00000000000000	11.79591600000000	0.00000000000000	
2.42833300000000	-51.36668600000000	804.58250599999997	49.03552900000000	0.13695500000000	0.00000000000000	0.10080000000000	-13.74933800000000	83.84931800000000	16.69795400000000	0.39120700000000	0.00000000000000	-0.06198500000000	0.00000000000000	23.37498400000000	0.00000000000000	0.00000000000000	12.13387500000000	0.00000000000000	
2.42999900000000	-52.01276000000000	801.99454000000003	48.73927900000000	0.13626800000000	0.00000000000000	0.10081700000000	-13.39694900000000	88.08458200000000	16.89558000000000	0.39406500000000	0.00000000000000	-0.06229700000000	0.00000000000000	23.31073700000000	0.00000000000000	0.00000000000000	12.41184800000000	0.00000000000000	
2.43166100000000	-52.66802100000000	799.26892999999995	48.41680300000000	0.13559300000000	0.00000000000000	0.10083000000000	-12.94543700000000	92.26877399999999	17.01763500000000	0.39678300000000	0.00000000000000	-0.06260600000000	0.00000000000000	23.24528600000000	0.00000000000000	0.00000000000000	12.64009400000000	0.00000000000000	
2.43333100000000	-53.33232000000000	796.40432099999998	48.06821600000000	0.13493000000000	0.00000000000000	0.10084000000000	-12.41464500000000	96.45669400000000	17.08005400000000	0.39936100000000	0.00000000000000	-0.06291300000000	0.00000000000000	23.17867800000000	0.00000000000000	0.00000000000000	12.82860200000000	0.00000000000000	
2.43499500000000	-54.00544500000000	793.39937299999997	47.69368500000000	0.13427700000000	0.00000000000000	0.10084600000000	-11.82197200000000	100.69820199999999	17.09693700000000	0.40180300000000	0.00000000000000	-0.06321900000000	0.00000000000000	23.11095400000000	0.00000000000000	0.00000000000000	12.98637000000000	0.00000000000000	
2.43665900000000	-54.68711400000000	790.25276199999996	47.29342100000000	0.13363400000000	0.00000000000000	0.10084900000000	-11.18164600000000	105.03567500000000	17.07986500000000	0.40411000000000	0.00000000000000	-0.06352400000000	0.00000000000000	23.04214300000000	0.00000000000000	0.00000000000000	13.12089200000000	0.00000000000000	
2.43832700000000	-55.37697400000000	786.96318099999996	46.86768800000000	0.13299900000000	0.00000000000000	0.10084800000000	-10.50436900000000	109.50244800000000	17.03752800000000	0.40628500000000	0.00000000000000	-0.06383000000000	0.00000000000000	22.97226600000000	0.00000000000000	0.00000000000000	13.23784400000000	0.00000000000000	
2.43999100000000	-56.07459900000000	783.52933700000006	46.41679500000000	0.13237200000000	0.00000000000000	0.10084300000000	-9.79727500000000	114.12219000000000	16.97562500000000	0.40833000000000	0.00000000000000	-0.06413600000000	0.00000000000000	22.90132900000000	0.00000000000000	0.00000000000000	13.34096700000000	0.00000000000000	
2.44166400000000	-56.77948500000000	779.94995300000005	45.94109800000000	0.13175100000000	0.00000000000000	0.10083500000000	-9.06417200000000	118.90907799999999	16.89701300000000	0.41024700000000	0.00000000000000	-0.06444300000000	0.00000000000000	22.82933000000000	0.00000000000000	0.00000000000000	13.43212000000000	0.00000000000000	
2.44332600000000	-57.49104900000000	776.22377400000005	45.44099700000000	0.13113500000000	0.00000000000000	0.10082300000000	-8.30596900000000	123.86862800000000	16.80203100000000	0.41203700000000	0.00000000000000	-0.06475200000000	0.00000000000000	22.75625500000000	0.00000000000000	0.00000000000000	13.51146300000000	0.00000000000000	
2.44499300000000	-58.20862500000000	772.34956199999999	44.91693900000000	0.13052200000000	0.00000000000000	0.10080800000000	-7.52125500000000	128.99897799999999	16.68895700000000	0.41370300000000	0.00000000000000	-0.06506200000000	0.00000000000000	22.68207800000000	0.00000000000000	0.00000000000000	13.57774200000000	0.00000000000000	
2.44666000000000	-58.93146300000000	768.32610099999999	44.36941000000000	0.12991200000000	0.00000000000000	0.10078900000000	-6.70692600000000	134.29246599999999	16.55453100000000	0.41524800000000	0.00000000000000	-0.06537400000000	0.00000000000000	22.60676100000000	0.00000000000000	0.00000000000000	13.62863500000000	0.00000000000000	
2.44832900000000	-59.65872800000000	764.15220099999999	43.79894000000000	0.12930300000000	0.00000000000000	0.10076800000000	-5.85883200000000	139.73730800000001	16.39449400000000	0.41667200000000	0.00000000000000	-0.06568800000000	0.00000000000000	22.53025400000000	0.00000000000000	0.00000000000000	13.66111200000000	0.00000000000000	
2.44999900000000	-60.38949400000000	759.82669899999996	43.20609800000000	0.12869400000000	0.00000000000000	0.10074200000000	-4.97237300000000	145.31924900000001	16.20411100000000	0.41797900000000	0.00000000000000	-0.06600400000000	0.00000000000000	22.45249800000000	0.00000000000000	0.00000000000000	13.67178900000000	0.00000000000000	
